<?xml version="1.0" standalone="no"?>
<!DOCTYPE svg PUBLIC "-//W3C//DTD SVG 20010904//EN"
 "http://www.w3.org/TR/2001/REC-SVG-20010904/DTD/svg10.dtd">
<svg version="1.0" xmlns="http://www.w3.org/2000/svg"
 width="450.000000pt" height="450.000000pt" viewBox="0 0 450.000000 450.000000"
 preserveAspectRatio="xMidYMid meet">
<metadata>
Created by potrace 1.14, written by Peter Selinger 2001-2017
</metadata>
<g transform="translate(0.000000,450.000000) scale(0.100000,-0.100000)"
fill="#000000" stroke="none">
<path d="M1554 2798 c-4 -7 -1 -14 7 -17 25 -8 108 -103 135 -155 47 -90 67
-176 66 -291 0 -94 -9 -172 -27 -230 -8 -27 -12 -52 -9 -57 3 -4 0 -8 -6 -8
-6 0 -9 -4 -5 -9 3 -5 -4 -32 -14 -59 -11 -27 -17 -53 -14 -56 4 -3 -279 -6
-629 -6 l-635 0 -208 30 c-191 28 -229 30 -212 14 3 -3 245 -66 539 -140 l533
-133 1205 -1 1205 0 215 59 c118 33 307 85 420 116 272 75 372 104 378 110 8
8 5 7 -242 -25 l-230 -30 -653 0 c-359 0 -653 2 -653 5 0 3 14 32 30 65 17 33
27 60 24 60 -4 0 -2 6 3 13 30 37 47 125 46 247 0 69 -3 139 -6 156 -18 96
-85 237 -151 316 l-31 38 -537 0 c-405 0 -539 -3 -544 -12z"/>
</g>
</svg>
